<svg xmlns="http://www.w3.org/2000/svg" viewBox="0 0 1920 1080">
  <title>Artboard 1</title>
  <g>
    <path d="M.5,540.5l201-213.24a14,14,0,0,1,21.76,1.82L339.59,503.18a17.36,17.36,0,0,0,25.77,3.5l60.46-52.12a17.18,17.18,0,0,1,22.94.45L640.59,633.93a27.65,27.65,0,0,0,38.79-1.06L909.88,393.13a36.25,36.25,0,0,1,51.25-1l169.1,162.54a19.62,19.62,0,0,0,23.61,2.73l125.59-74.55a27.49,27.49,0,0,1,31.46,2.38L1497,637.79a30.07,30.07,0,0,0,40.25-1.91l231.71-230a23.9,23.9,0,0,1,35.21,1.68L1920.5,547.5v533H.5Z" style="fill: #031035;opacity: 0.36"/>
    <path d="M.5,540.5l201-213.24a14,14,0,0,1,21.76,1.82L339.59,503.18a17.36,17.36,0,0,0,25.77,3.5l60.46-52.12a17.18,17.18,0,0,1,22.94.45L640.59,633.93a27.65,27.65,0,0,0,38.79-1.06L909.88,393.13a36.25,36.25,0,0,1,51.25-1l169.1,162.54a19.62,19.62,0,0,0,23.61,2.73l125.59-74.55a27.49,27.49,0,0,1,31.46,2.38L1497,637.79a30.07,30.07,0,0,0,40.25-1.91l231.71-230a23.9,23.9,0,0,1,35.21,1.68L1920.5,547.5v533H.5Z" style="fill: #031035;opacity: 0.36"/>
    <g>
      <polygon points="934 395 934 290 937 290 937 393 934 395" style="fill: #031035;opacity: 0.36"/>
      <polygon points="937 290 996 308 937 330.67 937 290" style="fill: #031035;opacity: 0.36"/>
    </g>
    <g>
      <polygon points="936 395 936 290 939 290 939 393 936 395" style="fill: #031035;opacity: 0.36"/>
      <polygon points="939 290 998 308 939 330.67 939 290" style="fill: #031035;opacity: 0.36"/>
    </g>
    <g>
      <polygon points="936 395 936 290 939 290 939 393 936 395" style="fill: #031035;opacity: 0.36"/>
      <polygon points="939 290 998 308 939 330.67 939 290" style="fill: #031035;opacity: 0.36"/>
    </g>
    <g>
      <polygon points="211.63 334 211.63 265 213.6 265 213.6 332.69 211.63 334" style="fill: #031035;opacity: 0.36"/>
      <polygon points="213.6 265 252.37 276.83 213.6 291.72 213.6 265" style="fill: #031035;opacity: 0.36"/>
    </g>
    <g>
      <polygon points="1300.09 490 1300.09 409 1302.4 409 1302.4 488.46 1300.09 490" style="fill: #031035;opacity: 0.36"/>
      <polygon points="1302.4 409 1347.91 422.89 1302.4 440.37 1302.4 409" style="fill: #031035;opacity: 0.36"/>
    </g>
  </g>
  <path d="M0,650s237-117,447-38S679,812,917,792s384-128,1002-113l2,402H1Z" style="fill: #05101e;opacity: 0.48"/>
  <g>
    <path d="M1920,949.43V1080H.92L0,1069.16V863.41C85.71,897.62,459.77,1035,737,947c212.54-67.47,552-155,797-114C1738.89,867.29,1831.88,979.2,1920,949.43Z" style="fill: #05101e"/>
    <g>
      <polygon points="100 924 130 540 140 924 100 924" style="fill: #05101e"/>
      <g>
        <polygon points="47 808 198 815 123 759 47 808" style="fill: #05101e"/>
        <polygon points="52 788.38 194.15 794.92 123.51 741.92 52 788.38" style="fill: #05101e"/>
        <polygon points="57 768.77 190.31 774.85 124.03 724.85 57 768.77" style="fill: #05101e"/>
        <polygon points="62 749.15 186.46 754.77 124.54 707.77 62 749.15" style="fill: #05101e"/>
        <polygon points="67 729.54 182.62 734.69 125.05 690.69 67 729.54" style="fill: #05101e"/>
        <polygon points="72 709.92 178.77 714.62 125.57 673.62 72 709.92" style="fill: #05101e"/>
        <polygon points="77 690.31 174.92 694.54 126.08 656.54 77 690.31" style="fill: #05101e"/>
        <polygon points="82 670.69 171.08 674.46 126.59 639.46 82 670.69" style="fill: #05101e"/>
        <polygon points="87 651.08 167.23 654.38 127.11 622.38 87 651.08" style="fill: #05101e"/>
        <polygon points="92 631.46 163.38 634.31 127.62 605.31 92 631.46" style="fill: #05101e"/>
        <polygon points="97 611.85 159.54 614.23 128.13 588.23 97 611.85" style="fill: #05101e"/>
        <polygon points="102 592.23 155.69 594.15 128.65 571.15 102 592.23" style="fill: #05101e"/>
        <polygon points="107 572.62 151.85 574.08 129.16 554.08 107 572.62" style="fill: #05101e"/>
        <polygon points="112 553 148 554 129.68 537 112 553" style="fill: #05101e"/>
      </g>
    </g>
    <g>
      <polygon points="221.92 997 247.35 671.54 255.82 997 221.92 997" style="fill: #05101e"/>
      <g>
        <polygon points="177 898.68 304.98 904.62 241.41 857.15 177 898.68" style="fill: #05101e"/>
        <polygon points="181.23 882.17 301.75 887.65 241.91 842.68 181.23 882.17" style="fill: #05101e"/>
        <polygon points="185.46 865.66 298.52 870.68 242.41 828.21 185.46 865.66" style="fill: #05101e"/>
        <polygon points="189.69 849.14 295.29 853.71 242.91 813.74 189.69 849.14" style="fill: #05101e"/>
        <polygon points="193.92 832.63 292.06 836.74 243.41 799.26 193.92 832.63" style="fill: #05101e"/>
        <polygon points="198.15 816.11 288.83 819.76 243.91 784.79 198.15 816.11" style="fill: #05101e"/>
        <polygon points="202.38 799.6 285.6 802.79 244.42 770.31 202.38 799.6" style="fill: #05101e"/>
        <polygon points="206.62 783.09 282.38 785.82 244.92 755.84 206.62 783.09" style="fill: #05101e"/>
        <polygon points="210.85 766.57 279.15 768.85 245.42 741.37 210.85 766.57" style="fill: #05101e"/>
        <polygon points="215.08 750.06 275.92 751.88 245.92 726.89 215.08 750.06" style="fill: #05101e"/>
        <polygon points="219.31 733.54 272.69 734.91 246.42 712.42 219.31 733.54" style="fill: #05101e"/>
        <polygon points="223.54 717.03 269.46 717.94 246.92 697.95 223.54 717.03" style="fill: #05101e"/>
        <polygon points="227.77 700.51 266.23 700.97 247.42 683.47 227.77 700.51" style="fill: #05101e"/>
        <polygon points="232 684 263 684 247.92 669 232 684" style="fill: #05101e"/>
      </g>
    </g>
    <g>
      <polygon points="856.93 951 884.07 603.71 893.11 951 856.93 951" style="fill: #05101e"/>
      <g>
        <polygon points="809 846.09 945.56 852.42 877.73 801.77 809 846.09" style="fill: #05101e"/>
        <polygon points="813.69 828.47 941.83 834.47 878.27 786.33 813.69 828.47" style="fill: #05101e"/>
        <polygon points="818.38 810.85 938.09 816.51 878.8 770.89 818.38 810.85" style="fill: #05101e"/>
        <polygon points="823.08 793.22 934.36 798.55 879.34 755.44 823.08 793.22" style="fill: #05101e"/>
        <polygon points="827.77 775.6 930.62 780.6 879.87 740 827.77 775.6" style="fill: #05101e"/>
        <polygon points="832.46 757.98 926.88 762.64 880.4 724.55 832.46 757.98" style="fill: #05101e"/>
        <polygon points="837.15 740.36 923.15 744.69 880.94 709.11 837.15 740.36" style="fill: #05101e"/>
        <polygon points="841.85 722.73 919.41 726.73 881.47 693.66 841.85 722.73" style="fill: #05101e"/>
        <polygon points="846.54 705.11 915.68 708.78 882.01 678.22 846.54 705.11" style="fill: #05101e"/>
        <polygon points="851.23 687.49 911.94 690.82 882.54 662.78 851.23 687.49" style="fill: #05101e"/>
        <polygon points="855.92 669.87 908.21 672.87 883.07 647.33 855.92 669.87" style="fill: #05101e"/>
        <polygon points="860.62 652.25 904.47 654.91 883.61 631.89 860.62 652.25" style="fill: #05101e"/>
        <polygon points="865.31 634.62 900.74 636.96 884.14 616.44 865.31 634.62" style="fill: #05101e"/>
        <polygon points="870 617 897 619 884.68 601 870 617" style="fill: #05101e"/>
      </g>
    </g>
    <g style="opacity: 0.5700000000000001">
      <polygon points="1522.77 864 1540.76 633.8 1546.75 864 1522.77 864" style="fill: #05101e"/>
      <g>
        <polygon points="1491 794.46 1581.52 798.66 1536.56 765.09 1491 794.46" style="fill: #05101e"/>
        <polygon points="1494.11 782.78 1579.05 786.75 1536.91 754.85 1494.11 782.78" style="fill: #05101e"/>
        <polygon points="1497.22 771.1 1576.57 774.85 1537.27 744.61 1497.22 771.1" style="fill: #05101e"/>
        <polygon points="1500.33 759.42 1574.09 762.95 1537.62 734.37 1500.33 759.42" style="fill: #05101e"/>
        <polygon points="1503.44 747.74 1571.62 751.05 1537.98 724.14 1503.44 747.74" style="fill: #05101e"/>
        <polygon points="1506.55 736.05 1569.14 739.15 1538.33 713.9 1506.55 736.05" style="fill: #05101e"/>
        <polygon points="1509.66 724.37 1566.66 727.25 1538.68 703.66 1509.66 724.37" style="fill: #05101e"/>
        <polygon points="1512.77 712.69 1564.19 715.34 1539.04 693.42 1512.77 712.69" style="fill: #05101e"/>
        <polygon points="1515.88 701.01 1561.71 703.44 1539.39 683.19 1515.88 701.01" style="fill: #05101e"/>
        <polygon points="1518.99 689.33 1559.24 691.54 1539.75 672.95 1518.99 689.33" style="fill: #05101e"/>
        <polygon points="1522.1 677.65 1556.76 679.64 1540.1 662.71 1522.1 677.65" style="fill: #05101e"/>
        <polygon points="1525.21 665.97 1554.28 667.74 1540.45 652.48 1525.21 665.97" style="fill: #05101e"/>
        <polygon points="1528.32 654.29 1551.81 655.83 1540.81 642.24 1528.32 654.29" style="fill: #05101e"/>
        <polygon points="1531.43 642.61 1549.33 643.93 1541.16 632 1531.43 642.61" style="fill: #05101e"/>
      </g>
    </g>
    <g style="opacity: 0.99">
      <polygon points="1594.51 900 1625.36 505.08 1635.64 900 1594.51 900" style="fill: #05101e"/>
      <g>
        <polygon points="1540 780.7 1695.29 787.9 1618.16 730.31 1540 780.7" style="fill: #05101e"/>
        <polygon points="1545.34 760.66 1691.04 767.48 1618.77 712.75 1545.34 760.66" style="fill: #05101e"/>
        <polygon points="1550.67 740.63 1686.8 747.07 1619.38 695.18 1550.67 740.63" style="fill: #05101e"/>
        <polygon points="1556.01 720.59 1682.55 726.65 1619.98 677.62 1556.01 720.59" style="fill: #05101e"/>
        <polygon points="1561.34 700.55 1678.3 706.23 1620.59 660.06 1561.34 700.55" style="fill: #05101e"/>
        <polygon points="1566.68 680.51 1674.05 685.81 1621.2 642.5 1566.68 680.51" style="fill: #05101e"/>
        <polygon points="1572.02 660.47 1669.8 665.39 1621.8 624.94 1572.02 660.47" style="fill: #05101e"/>
        <polygon points="1577.35 640.43 1665.56 644.98 1622.41 607.37 1577.35 640.43" style="fill: #05101e"/>
        <polygon points="1582.69 620.39 1661.31 624.56 1623.02 589.81 1582.69 620.39" style="fill: #05101e"/>
        <polygon points="1588.02 600.35 1657.06 604.14 1623.63 572.25 1588.02 600.35" style="fill: #05101e"/>
        <polygon points="1593.36 580.31 1652.81 583.72 1624.23 554.69 1593.36 580.31" style="fill: #05101e"/>
        <polygon points="1598.69 560.27 1648.56 563.3 1624.84 537.13 1598.69 560.27" style="fill: #05101e"/>
        <polygon points="1604.03 540.23 1644.32 542.89 1625.45 519.56 1604.03 540.23" style="fill: #05101e"/>
        <polygon points="1609.37 520.19 1640.07 522.47 1626.05 502 1609.37 520.19" style="fill: #05101e"/>
      </g>
    </g>
    <g style="opacity: 0.59">
      <polygon points="576.97 991 591.67 802.82 596.58 991 576.97 991" style="fill: #05101e"/>
      <g>
        <polygon points="551 934.15 625 937.58 588.25 910.14 551 934.15" style="fill: #05101e"/>
        <polygon points="553.15 924.35 623.45 927.52 588.53 901.77 553.15 924.35" style="fill: #05101e"/>
        <polygon points="555.3 914.55 621.91 917.45 588.82 893.4 555.3 914.55" style="fill: #05101e"/>
        <polygon points="557.45 904.75 620.36 907.39 589.11 885.03 557.45 904.75" style="fill: #05101e"/>
        <polygon points="559.6 894.95 618.82 897.32 589.4 876.66 559.6 894.95" style="fill: #05101e"/>
        <polygon points="561.74 885.15 617.27 887.26 589.69 868.29 561.74 885.15" style="fill: #05101e"/>
        <polygon points="563.89 875.34 615.73 877.19 589.98 859.93 563.89 875.34" style="fill: #05101e"/>
        <polygon points="566.04 865.54 614.18 867.13 590.27 851.56 566.04 865.54" style="fill: #05101e"/>
        <polygon points="568.19 855.74 612.63 857.06 590.56 843.19 568.19 855.74" style="fill: #05101e"/>
        <polygon points="570.34 845.94 611.09 847 590.85 834.82 570.34 845.94" style="fill: #05101e"/>
        <polygon points="572.49 836.14 609.54 836.93 591.14 826.45 572.49 836.14" style="fill: #05101e"/>
        <polygon points="574.64 826.34 608 826.87 591.43 818.08 574.64 826.34" style="fill: #05101e"/>
        <polygon points="576.78 816.54 606.45 816.8 591.72 809.71 576.78 816.54" style="fill: #05101e"/>
        <polygon points="578.93 806.74 604.91 806.74 592.01 801.34 578.93 806.74" style="fill: #05101e"/>
      </g>
    </g>
    <g style="opacity: 0.59">
      <polygon points="684.57 988 705.26 723.07 712.16 988 684.57 988" style="fill: #05101e"/>
      <g>
        <polygon points="648 907.97 752.18 912.8 700.43 874.16 648 907.97" style="fill: #05101e"/>
        <polygon points="651.46 894.51 749.55 899.04 700.84 862.38 651.46 894.51" style="fill: #05101e"/>
        <polygon points="654.92 881.05 746.92 885.29 701.25 850.6 654.92 881.05" style="fill: #05101e"/>
        <polygon points="658.38 867.59 744.29 871.54 701.66 838.82 658.38 867.59" style="fill: #05101e"/>
        <polygon points="661.85 854.13 741.66 857.78 702.06 827.04 661.85 854.13" style="fill: #05101e"/>
        <polygon points="665.31 840.67 739.03 844.03 702.47 815.25 665.31 840.67" style="fill: #05101e"/>
        <polygon points="668.77 827.21 736.4 830.28 702.88 803.47 668.77 827.21" style="fill: #05101e"/>
        <polygon points="672.23 813.75 733.77 816.52 703.29 791.69 672.23 813.75" style="fill: #05101e"/>
        <polygon points="675.69 800.3 731.14 802.77 703.69 779.91 675.69 800.3" style="fill: #05101e"/>
        <polygon points="679.15 786.84 728.52 789.01 704.1 768.13 679.15 786.84" style="fill: #05101e"/>
        <polygon points="682.62 773.38 725.89 775.26 704.51 756.35 682.62 773.38" style="fill: #05101e"/>
        <polygon points="686.08 759.92 723.26 761.51 704.91 744.56 686.08 759.92" style="fill: #05101e"/>
        <polygon points="689.54 746.46 720.63 747.75 705.32 732.78 689.54 746.46" style="fill: #05101e"/>
        <polygon points="693 733 718 734 705.73 721 693 733" style="fill: #05101e"/>
      </g>
    </g>
  </g>
</svg>
